<svg width="254" height="176" viewBox="0 0 254 176" fill="none" xmlns="http://www.w3.org/2000/svg">
<path d="M0.5 16.0623V63C0.5 63.5523 0.947715 64 1.5 64H14.5C15.0523 64 15.5 63.5523 15.5 63V19C15.5 19 15.5 13.5 20.5 13.5C26 13.5 26 19 26 19V63C26 63.5523 26.4477 64 27 64H40.5C41.0523 64 41.5 63.5523 41.5 63V16.0929C41.5 16.0311 41.4962 15.979 41.4834 15.9185C41.2231 14.6909 37.7479 0 20.5 0C3.1287 0 0.659231 14.9018 0.507916 15.9428C0.501952 15.9838 0.5 16.0208 0.5 16.0623Z" fill="black"/>
<path d="M112 90.0623V137C112 137.552 112.448 138 113 138H126C126.552 138 127 137.552 127 137V93C127 93 127 87.5 132 87.5C137.5 87.5 137.5 93 137.5 93V137C137.5 137.552 137.948 138 138.5 138H152C152.552 138 153 137.552 153 137V90.0929C153 90.0311 152.996 89.979 152.983 89.9185C152.723 88.6909 149.248 74 132 74C114.629 74 112.159 88.9018 112.008 89.9428C112.002 89.9838 112 90.0208 112 90.0623Z" fill="black"/>
<path d="M0 137V90.0623C0 90.0208 0.00195168 89.9838 0.00791627 89.9428C0.159231 88.9018 2.6287 74 20 74C26.3658 74 30.8556 76.0012 34 78.5881C34 78.5881 40 74 46 74C63.2479 74 66.7231 88.6909 66.9834 89.9185C66.9962 89.979 67 90.0311 67 90.0929V137C67 137.552 66.5523 138 66 138H52.5C51.9477 138 51.5 137.552 51.5 137V93C51.5 93 51.5 87.5 46 87.5C41.7692 87.5 41.0888 90.7544 41 92.2565V93V137C41 137.552 40.5523 138 40 138H26.5C25.9477 138 25.5 137.552 25.5 137V93C25.5 93 25.5 87.5 20 87.5C15 87.5 15 93 15 93V137C15 137.552 14.5523 138 14 138H1C0.447715 138 0 137.552 0 137Z" fill="black"/>
<path fill-rule="evenodd" clip-rule="evenodd" d="M43.5223 49.6343C43.5054 49.5384 43.5 49.4511 43.5 49.3537V16.1245C43.5 16.0416 43.5036 15.9691 43.5163 15.8872C43.7361 14.4613 46.3874 0 63.5 0C80.3694 0 84.064 14.0532 84.4615 15.8186C84.4887 15.9392 84.5 16.0622 84.5 16.1859V49.8493C84.5 49.9496 84.494 50.0412 84.4759 50.1399C84.1838 51.7384 81.0254 66.5 64 66.5C46.9402 66.5 43.8035 51.2296 43.5223 49.6343ZM58.5 47.5C58.5 47.5 58.5 47.5 58.5 47.5V18C58.5 18 58.5 18 58.5 18C58.5 17.9997 58.5001 13.5 63.75 13.5C69 13.5 69 17.9999 69 18C69 18 69 18 69 18V47.5C69 47.5 69 52.5 63.75 52.5C58.5001 52.5 58.5 47.5002 58.5 47.5Z" fill="black"/>
<path fill-rule="evenodd" clip-rule="evenodd" d="M155 74.3284C155 73.8629 155.317 73.4625 155.775 73.3805C158.127 72.9592 165.63 71.9157 175.5 73.5333C186.98 75.4147 186.105 85.5631 186.007 86.4396C186.002 86.4845 186 86.5227 186 86.5679V125.5C186 125.5 186 134.928 175.62 137.504C175.542 137.523 175.46 137.533 175.38 137.533C167.259 137.506 158.839 137.523 156.001 137.531C155.447 137.532 155 137.084 155 136.53V123.533V106.533V74.3284ZM167.5 126.533C166.948 126.533 166.5 126.086 166.5 125.533V84.0333C166.5 84.0333 166.5 83.5 170 83.5333C173.137 83.5632 174.266 86.7259 174.466 87.3818C174.49 87.4612 174.5 87.542 174.5 87.6251V122.471C174.5 122.513 174.498 122.552 174.491 122.593C174.412 123.09 173.747 126.533 170.5 126.533H167.5Z" fill="black"/>
<path fill-rule="evenodd" clip-rule="evenodd" d="M69.0223 151.634C69.0054 151.538 69 151.451 69 151.354V90.1245C69 90.0416 69.0036 89.9691 69.0163 89.8872C69.2361 88.4613 71.8874 74 89 74C105.869 74 109.564 88.0532 109.962 89.8186C109.989 89.9392 110 90.0622 110 90.1859V151.849C110 151.95 109.994 152.041 109.976 152.14C109.684 153.738 106.525 168.5 89.5 168.5C72.4402 168.5 69.3035 153.23 69.0223 151.634ZM84 151.5C84 151.5 84 151.5 84 151.5V92C84 92 84 92 84 92C84 91.9997 84.0001 87.5 89.25 87.5C94.5 87.5 94.5 91.9999 94.5 92C94.5 92 94.5 92 94.5 92V151.5C94.5 151.5 94.5 156.5 89.25 156.5C84.0001 156.5 84 151.5 84 151.5Z" fill="black"/>
<path fill-rule="evenodd" clip-rule="evenodd" d="M188.5 137V84.5C188.5 84.5 189.5 72.5 204 72.5C218.5 72.5 219.5 84.5 219.5 84.5V137H208V130H200V137H188.5ZM200 119.5V86.5C200 86.5 200 83 204 83C208 83 208 86.5 208 86.5V119.5H200Z" fill="black"/>
<path d="M233 73.5H221.5V116C221.5 116 220.959 119.444 225 124C227.5 126.819 231 128 231 128V136.5H243V128C243 128 246.5 126.98 249 124C252.356 120 252 116 252 116V73.5H241V115.5C241 115.5 240.312 118.5 237 118.5C233.688 118.5 233 115.5 233 115.5V73.5Z" fill="black"/>
<path d="M144.012 164.441C144.012 165.457 143.758 166.324 143.25 167.043C142.75 167.754 142.047 168.297 141.141 168.672C140.234 169.047 139.168 169.234 137.941 169.234C137.293 169.234 136.68 169.203 136.102 169.141C135.523 169.078 134.992 168.988 134.508 168.871C134.023 168.754 133.598 168.609 133.23 168.438V166.527C133.816 166.77 134.531 166.996 135.375 167.207C136.219 167.41 137.102 167.512 138.023 167.512C138.883 167.512 139.609 167.398 140.203 167.172C140.797 166.938 141.246 166.605 141.551 166.176C141.863 165.738 142.02 165.215 142.02 164.605C142.02 164.02 141.891 163.531 141.633 163.141C141.375 162.742 140.945 162.383 140.344 162.062C139.75 161.734 138.938 161.387 137.906 161.02C137.18 160.762 136.539 160.48 135.984 160.176C135.43 159.863 134.965 159.512 134.59 159.121C134.215 158.73 133.93 158.277 133.734 157.762C133.547 157.246 133.453 156.656 133.453 155.992C133.453 155.078 133.684 154.297 134.145 153.648C134.613 152.992 135.258 152.492 136.078 152.148C136.906 151.797 137.855 151.621 138.926 151.621C139.84 151.621 140.684 151.707 141.457 151.879C142.238 152.051 142.953 152.281 143.602 152.57L142.98 154.281C142.363 154.023 141.707 153.809 141.012 153.637C140.324 153.465 139.613 153.379 138.879 153.379C138.145 153.379 137.523 153.488 137.016 153.707C136.516 153.918 136.133 154.219 135.867 154.609C135.602 155 135.469 155.465 135.469 156.004C135.469 156.605 135.594 157.105 135.844 157.504C136.102 157.902 136.508 158.258 137.062 158.57C137.625 158.875 138.367 159.195 139.289 159.531C140.297 159.898 141.152 160.289 141.855 160.703C142.559 161.109 143.094 161.609 143.461 162.203C143.828 162.789 144.012 163.535 144.012 164.441ZM156.377 169H154.373V153.625H148.983V151.867H161.745V153.625H156.377V169ZM180.895 151.867V162.953C180.895 164.164 180.649 165.242 180.157 166.188C179.673 167.133 178.938 167.879 177.954 168.426C176.97 168.965 175.735 169.234 174.251 169.234C172.134 169.234 170.52 168.66 169.411 167.512C168.309 166.363 167.759 164.828 167.759 162.906V151.867H169.763V162.965C169.763 164.418 170.145 165.539 170.911 166.328C171.684 167.117 172.837 167.512 174.368 167.512C175.415 167.512 176.27 167.324 176.934 166.949C177.606 166.566 178.102 166.035 178.423 165.355C178.751 164.668 178.915 163.875 178.915 162.977V151.867H180.895ZM202.648 160.27C202.648 162.199 202.296 163.812 201.593 165.109C200.89 166.398 199.87 167.371 198.534 168.027C197.206 168.676 195.593 169 193.695 169H189.042V151.867H194.21C195.952 151.867 197.452 152.188 198.71 152.828C199.968 153.461 200.937 154.402 201.616 155.652C202.304 156.895 202.648 158.434 202.648 160.27ZM200.55 160.34C200.55 158.801 200.292 157.531 199.777 156.531C199.269 155.531 198.519 154.789 197.527 154.305C196.542 153.812 195.335 153.566 193.905 153.566H191.034V167.289H193.46C195.82 167.289 197.589 166.707 198.769 165.543C199.956 164.379 200.55 162.645 200.55 160.34ZM210.056 169V151.867H212.048V169H210.056ZM235.219 160.41C235.219 161.73 235.051 162.934 234.715 164.02C234.379 165.098 233.879 166.027 233.215 166.809C232.559 167.582 231.742 168.18 230.766 168.602C229.789 169.023 228.656 169.234 227.367 169.234C226.039 169.234 224.879 169.023 223.887 168.602C222.902 168.18 222.082 167.578 221.426 166.797C220.777 166.016 220.289 165.082 219.961 163.996C219.641 162.91 219.48 161.707 219.48 160.387C219.48 158.637 219.77 157.102 220.348 155.781C220.926 154.461 221.801 153.434 222.973 152.699C224.152 151.965 225.629 151.598 227.402 151.598C229.098 151.598 230.523 151.961 231.68 152.688C232.844 153.414 233.723 154.438 234.316 155.758C234.918 157.07 235.219 158.621 235.219 160.41ZM221.578 160.41C221.578 161.863 221.785 163.121 222.199 164.184C222.613 165.246 223.246 166.066 224.098 166.645C224.957 167.223 226.047 167.512 227.367 167.512C228.695 167.512 229.781 167.223 230.625 166.645C231.477 166.066 232.105 165.246 232.512 164.184C232.918 163.121 233.121 161.863 233.121 160.41C233.121 158.199 232.656 156.473 231.727 155.23C230.805 153.98 229.363 153.355 227.402 153.355C226.074 153.355 224.98 153.641 224.121 154.211C223.262 154.781 222.621 155.594 222.199 156.648C221.785 157.695 221.578 158.949 221.578 160.41ZM252.307 164.441C252.307 165.457 252.053 166.324 251.545 167.043C251.045 167.754 250.342 168.297 249.436 168.672C248.53 169.047 247.463 169.234 246.237 169.234C245.588 169.234 244.975 169.203 244.397 169.141C243.819 169.078 243.287 168.988 242.803 168.871C242.319 168.754 241.893 168.609 241.526 168.438V166.527C242.112 166.77 242.827 166.996 243.67 167.207C244.514 167.41 245.397 167.512 246.319 167.512C247.178 167.512 247.905 167.398 248.498 167.172C249.092 166.938 249.541 166.605 249.846 166.176C250.159 165.738 250.315 165.215 250.315 164.605C250.315 164.02 250.186 163.531 249.928 163.141C249.67 162.742 249.241 162.383 248.639 162.062C248.045 161.734 247.233 161.387 246.202 161.02C245.475 160.762 244.834 160.48 244.28 160.176C243.725 159.863 243.26 159.512 242.885 159.121C242.51 158.73 242.225 158.277 242.03 157.762C241.842 157.246 241.748 156.656 241.748 155.992C241.748 155.078 241.979 154.297 242.44 153.648C242.909 152.992 243.553 152.492 244.373 152.148C245.202 151.797 246.151 151.621 247.221 151.621C248.135 151.621 248.979 151.707 249.752 151.879C250.534 152.051 251.248 152.281 251.897 152.57L251.276 154.281C250.659 154.023 250.002 153.809 249.307 153.637C248.62 153.465 247.909 153.379 247.174 153.379C246.44 153.379 245.819 153.488 245.311 153.707C244.811 153.918 244.428 154.219 244.162 154.609C243.897 155 243.764 155.465 243.764 156.004C243.764 156.605 243.889 157.105 244.139 157.504C244.397 157.902 244.803 158.258 245.358 158.57C245.92 158.875 246.662 159.195 247.584 159.531C248.592 159.898 249.448 160.289 250.151 160.703C250.854 161.109 251.389 161.609 251.756 162.203C252.123 162.789 252.307 163.535 252.307 164.441Z" fill="black"/>
</svg>
