<svg width="36" height="36" viewBox="0 0 36 36" fill="none" xmlns="http://www.w3.org/2000/svg">
<rect width="35.9999" height="35.9999" rx="18" fill="black"/>
<rect width="35.9999" height="35.9999" rx="18" fill="url(#paint0_linear_106_16)"/>
<path d="M7.34204 14.2252V25.3421C7.34204 25.4729 7.44808 25.5789 7.57888 25.5789H10.6578C10.7886 25.5789 10.8947 25.4729 10.8947 25.3421V14.921C10.8947 14.921 10.8947 13.6184 12.0789 13.6184C13.3815 13.6184 13.3815 14.921 13.3815 14.921V25.3421C13.3815 25.4729 13.4875 25.5789 13.6183 25.5789H16.8157C16.9465 25.5789 17.0526 25.4729 17.0526 25.3421V14.2325C17.0526 14.2179 17.0517 14.2055 17.0486 14.1912C16.987 13.9004 16.1639 10.421 12.0789 10.421C7.96463 10.421 7.37975 13.9504 7.34392 14.197C7.3425 14.2067 7.34204 14.2154 7.34204 14.2252Z" fill="white"/>
<path fill-rule="evenodd" clip-rule="evenodd" d="M18.9537 24.7068C18.9491 24.6825 18.9474 24.6592 18.9474 24.6345V11.1394C18.9474 11.1183 18.9485 11.0992 18.952 11.0784C19.0091 10.7394 19.6497 7.57893 23.6842 7.57893C27.6631 7.57893 28.5473 10.6528 28.6476 11.0628C28.655 11.0933 28.6579 11.1236 28.6579 11.155V24.7436C28.6579 24.7691 28.656 24.7936 28.651 24.8186C28.575 25.1998 27.8135 28.421 23.8026 28.421C19.7824 28.421 19.0268 25.0868 18.9537 24.7068ZM22.5 24.6716C22.5 24.6716 22.5 24.6716 22.5 24.6716V11.5489C22.5 11.5489 22.5 11.5489 22.5 11.5488C22.5 11.5488 22.5 10.5564 23.7434 10.5564C24.9868 10.5564 24.9869 11.5488 24.9869 11.5488C24.9869 11.5489 24.9869 11.5488 24.9869 11.5488V24.6716C24.9869 24.6716 24.9869 25.7744 23.7434 25.7744C22.5 25.7744 22.5 24.6717 22.5 24.6716Z" fill="white"/>
<defs>
<linearGradient id="paint0_linear_106_16" x1="9.66232" y1="33.6315" x2="28.3899" y2="5.43502" gradientUnits="userSpaceOnUse">
<stop stop-color="#0016FF" stop-opacity="0.45"/>
<stop offset="0.724" stop-color="#0016FF" stop-opacity="0"/>
</linearGradient>
</defs>
</svg>
